<?xml version="1.0" ?><svg enable-background="new 0 0 207.8772 223.9907" id="airbnb" version="1.1" viewBox="0 0 207.8772 223.9907" xml:space="preserve" xmlns="http://www.w3.org/2000/svg" xmlns:xlink="http://www.w3.org/1999/xlink"><g><path d="M202.1363,148.7171c-11.1603-24.3592-23.6856-50.8144-39.422-83.254c-6.6428-13.6856-14.4688-29.5489-23.2892-44.6249   c-5.9256-10.1287-15.1484-17.1387-25.9704-19.7423C102.8235-1.4585,91.732,0.4867,82.2203,6.5727   c-9.2384,5.916-14.5,14.7908-18.428,22.6912l-9.164,18.3752c-10.3144,20.66-20.9784,42.0231-31.1796,63.1892l-0.2344,0.4864   c-7.1796,14.8948-14.6036,30.2968-20.3068,46.1408c-8.7088,24.1992,2.7228,50.6756,26.588,61.5896   c18.254,8.3516,37.1308,5.9651,56.1112-7.1132c5.1408-3.5352,9.8636-7.6796,14.8636-12.0704c1.32-1.156,2.6716-2.3436,4.072-3.5544   c0.5548,0.75,1.2012,1.492,1.9844,2.1444c1.6368,1.3632,3.254,2.7616,4.8733,4.164c5.072,4.3907,10.3183,8.9336,16.24,12.4492   c10.0139,5.9492,20.0487,8.926,29.84,8.926c9.6991,0,19.1563-2.922,28.0995-8.7656   C207.2299,201.0803,213.8842,174.3539,202.1363,148.7171z M181.2047,208.5295c-15.4552,10.0976-32.1056,9.9844-49.4788-0.3396   c-5.3104-3.1564-10.0604-7.2696-15.0896-11.6212c-1.6584-1.4336-3.3128-2.8672-4.9904-4.2656   c-0.58-0.4844-1.1836-1.4844-1.7656-2.4572c-0.3868-0.6444-0.7696-1.2732-1.174-1.8477l-2.5036-3.5779l-3.344,2.8084   c-2.7204,2.2852-5.246,4.4964-7.664,6.6212c-5.0292,4.4104-9.3712,8.2228-14.1248,11.496   c-16.7308,11.5196-32.5139,13.6212-48.2464,6.426c-20.0524-9.172-29.6755-31.3556-22.3884-51.6057   c5.5624-15.4531,12.8944-30.668,19.9864-45.3787l0.234-0.4844c10.176-21.1172,20.8285-42.4552,31.1312-63.092l9.168-18.3828   c3.4413-6.9236,7.984-14.6541,15.578-19.5176c7.658-4.902,16.5584-6.4805,25.0508-4.4352   c8.6856,2.0876,16.1212,7.7712,20.9356,16.0016c8.6776,14.8304,16.4216,30.5296,22.998,44.0784   c15.7088,32.3848,28.2109,58.7888,39.3456,83.0936C205.0502,174.2835,199.6887,196.4515,181.2047,208.5295z"/><path d="M120.7143,99.4243c-8.7208-6.7832-18.7423-7.7464-28.9728-2.7812c-6.41,3.1111-13.8708,9.8688-13.0055,24.41   c1.0895,18.3788,10.912,32.1016,21.3123,46.6368l3.8828,5.4256l3.2812-4.332c9.0216-11.914,18.1037-24.8712,21.3984-40.7188   C130.341,119.7483,131.404,107.7327,120.7143,99.4243z M120.7787,126.4399c-2.576,12.3868-9.3747,23.1756-16.6836,33.1484   c-8.75-12.3244-16.502-24.3048-17.3748-39.0116c-0.4963-8.3596,2.2088-13.678,8.5136-16.7345   c3.1484-1.5275,6.2068-2.2911,9.164-2.2911c4.0021,0,7.8164,1.3984,11.4064,4.1896   C121.404,110.0923,122.8899,116.2835,120.7787,126.4399z"/><path d="M134.2047,44.4671l-6.4044-13.0529c-4.7676-9.7263-13.496-15.5895-23.3516-15.6855   c-10.08,0.0472-19.0684,5.7424-24.1444,15.6152c-1.5276,2.9688-3.098,5.9124-4.67,8.8576   c-2.6172,4.9064-5.3244,9.9784-7.7872,15.1112c-17.34,36.1116-33.3184,69.6428-48.8516,102.51   c-4.5664,9.664-4.7344,19.836-0.4904,29.4216c4.0392,9.1172,11.25,15.9219,20.3048,19.1644c3.7344,1.3356,7.6232,2,11.5372,2   c5.588,0,11.2284-1.3516,16.5508-4.0276c6.7636-3.406,12.6816-8.2656,18.4064-12.9608c2.496-2.0468,4.992-4.0976,7.5508-6.0196   c6.6852-5.0076,3-10.7305,1.5644-12.9608c-6.6096-10.254-13.4435-20.8556-18.76-31.84   c-5.1384-10.6172-6.2224-21.3048-3.2208-31.7636c4.7736-16.6056,22.5628-26.1056,40.4884-21.6328   c16.8244,4.1952,27.0468,20.9844,23.7812,39.0528c-2.238,12.3944-7.6228,24.3984-17.4588,38.9139   c-0.6272,0.9257-1.3808,1.8869-2.1408,2.8593c-2.7696,3.5508-5.908,7.5784-5.2148,11.9144v0.0076   c0.7404,4.586,4.9221,7.8907,8.6112,10.8048c0.8264,0.6524,1.6368,1.2928,2.3772,1.9256   c9.2988,7.9648,19.8672,15.3596,34.1092,15.5468l0.2968,0.004l0.2932-0.0388c0.8964-0.1212,1.8028-0.2112,2.7088-0.3008   c2.2092-0.2152,4.4944-0.4416,6.8068-1.09c10.1112-2.828,18.338-9.7344,22.5684-18.9532   c4.2676-9.3048,4.1132-19.7772-0.4335-29.496C171.3491,120.1622,152.4662,81.6799,134.2047,44.4671z M182.3939,184.5102   c-3.248,7.0781-9.6072,12.3945-17.4532,14.5897c-1.6384,0.4572-3.4824,0.6408-5.4336,0.832   c-0.8984,0.09-1.7988,0.1796-2.6911,0.2932c-10.9085-0.2344-19.3849-5.6172-28.7285-13.6212   c-0.8164-0.6952-1.7112-1.4064-2.6232-2.1252c-2.1504-1.6992-5.3928-4.2616-5.668-5.7772c-0.0096-1.0936,2.3496-4.1212,3.6192-5.75   c0.8748-1.1213,1.7344-2.2264,2.4552-3.2928c7.0644-10.426,15.576-24.6212,18.7088-41.9808   c4.0256-22.2692-8.748-43.0077-29.7148-48.236c-22.1327-5.5216-44.1464,6.416-50.1132,27.1852   c-3.5136,12.2344-2.2324,25.1876,3.7088,37.4572c5.5277,11.4219,12.496,22.2344,19.2812,32.7656   c0.5628,0.8712,0.8048,1.3788,0.9105,1.6483c-0.1153,0.1173-0.3029,0.2853-0.596,0.504c-2.652,1.9885-5.24,4.1093-7.828,6.2345   c-5.6349,4.6248-10.9569,8.992-16.9277,11.996c-7.0744,3.5588-14.8123,4.1408-21.7932,1.6444   c-6.9724-2.496-12.5428-7.7772-15.6856-14.8749c-3.324-7.5-3.1852-15.1563,0.4084-22.7615   c15.5236-32.8516,31.496-66.3692,48.828-102.4668c2.3908-4.9788,5.0568-9.9748,7.6348-14.8068   c1.59-2.9804,3.1816-5.9609,4.7248-8.9628c3.6368-7.0724,9.904-11.2756,16.7928-11.2756c0.0528,0,0.1076,0,0.162,0   c6.764,0.0648,12.838,4.254,16.2444,11.2072l6.406,13.0548c18.2444,37.1816,37.1116,75.6288,54.9632,113.7536   C185.5211,169.2951,185.6655,177.3811,182.3939,184.5102z"/></g></svg>